<svg xmlns="http://www.w3.org/2000/svg" xmlns:xlink="http://www.w3.org/1999/xlink" width="500" zoomAndPan="magnify" viewBox="0 0 375 374.999991" height="500" preserveAspectRatio="xMidYMid meet" version="1.2"><defs/><g id="bb1d7fc3f6"><g style="fill:#4caf50;fill-opacity:1;"><g transform="translate(-0.534428, 332.263783)"><path style="stroke:none" d="M 170.011719 -269.113281 C 204.796875 -268.914062 233.671875 -255.449219 256.640625 -228.71875 C 279.484375 -202.132812 290.796875 -169.855469 290.578125 -131.890625 L 290.066406 -42.851562 C 290.023438 -34.945312 289.726562 -28.980469 289.175781 -24.953125 C 288.59375 -20.691406 287.023438 -16.03125 284.457031 -10.976562 C 279.011719 -0.617188 264.792969 4.492188 241.796875 4.363281 C 216.121094 4.214844 201.222656 -2.941406 197.101562 -17.101562 L 200.441406 -18.074219 L 197.15625 -16.933594 C 195.035156 -23.054688 194.007812 -32.046875 194.078125 -43.910156 L 194.589844 -132.945312 C 194.664062 -145.800781 191.105469 -155.785156 183.917969 -162.902344 C 176.707031 -170.039062 166.917969 -173.640625 154.539062 -173.710938 C 142.164062 -173.785156 132.164062 -170.125 124.535156 -162.738281 C 116.925781 -155.367188 113.085938 -145.59375 113.015625 -133.414062 L 112.5 -43.875 C 112.453125 -35.964844 112.15625 -30 111.609375 -25.976562 C 111.019531 -21.644531 109.246094 -16.929688 106.292969 -11.828125 L 103.28125 -13.570312 L 106.40625 -12.046875 C 101.332031 -1.65625 87.273438 3.472656 64.230469 3.339844 C 41.574219 3.210938 27.589844 -2.046875 22.277344 -12.4375 L 22.246094 -12.5 L 22.214844 -12.566406 C 19.734375 -17.964844 18.230469 -22.78125 17.703125 -27.019531 C 17.199219 -31.050781 16.972656 -37.019531 17.015625 -44.929688 L 18.046875 -224.011719 C 18.089844 -231.582031 18.382812 -237.378906 18.933594 -241.40625 C 19.523438 -245.734375 21.296875 -250.449219 24.25 -255.550781 C 29.679688 -265.121094 43.699219 -269.839844 66.304688 -269.710938 C 88.179688 -269.582031 101.792969 -265.070312 107.140625 -256.167969 C 110.816406 -249.839844 112.628906 -242.3125 112.578125 -233.585938 L 109.101562 -233.609375 L 106.089844 -235.351562 C 107.628906 -238.011719 110.90625 -241.636719 115.914062 -246.234375 C 120.828125 -250.746094 125.582031 -254.398438 130.179688 -257.191406 L 131.984375 -254.21875 L 130.050781 -257.109375 C 142.15625 -265.195312 155.472656 -269.195312 170.011719 -269.113281 Z M 169.972656 -262.15625 C 156.855469 -262.234375 144.835938 -258.621094 133.917969 -251.328125 L 133.855469 -251.285156 L 133.789062 -251.246094 C 129.585938 -248.691406 125.195312 -245.3125 120.617188 -241.109375 C 116.128906 -236.992188 113.296875 -233.910156 112.109375 -231.863281 L 105.546875 -220.53125 L 105.621094 -233.628906 C 105.664062 -241.089844 104.183594 -247.410156 101.179688 -252.585938 C 97.171875 -259.253906 85.535156 -262.644531 66.265625 -262.753906 C 46.378906 -262.867188 34.378906 -259.304688 30.269531 -252.066406 C 27.773438 -247.753906 26.292969 -243.886719 25.824219 -240.464844 C 25.316406 -236.738281 25.042969 -231.242188 25 -223.972656 L 23.972656 -44.886719 C 23.929688 -37.28125 24.140625 -31.613281 24.605469 -27.878906 C 25.042969 -24.355469 26.355469 -20.21875 28.535156 -15.472656 L 25.375 -14.019531 L 28.472656 -15.601562 C 32.5 -7.726562 44.433594 -3.730469 64.269531 -3.613281 C 84.398438 -3.5 96.359375 -7.328125 100.15625 -15.097656 L 100.210938 -15.207031 L 100.273438 -15.316406 C 102.769531 -19.625 104.25 -23.492188 104.714844 -26.914062 C 105.222656 -30.640625 105.5 -36.308594 105.542969 -43.914062 L 106.058594 -133.457031 C 106.140625 -147.582031 110.683594 -159.007812 119.695312 -167.734375 C 128.683594 -176.4375 140.3125 -180.75 154.582031 -180.667969 C 168.847656 -180.585938 180.257812 -176.3125 188.8125 -167.84375 C 197.386719 -159.355469 201.628906 -147.710938 201.546875 -132.90625 L 201.035156 -43.871094 C 200.96875 -32.800781 201.867188 -24.582031 203.730469 -19.210938 L 203.757812 -19.128906 L 203.78125 -19.042969 C 206.9375 -8.207031 219.621094 -2.722656 241.839844 -2.59375 C 262.011719 -2.480469 274.152344 -6.320312 278.253906 -14.121094 C 280.464844 -18.480469 281.808594 -22.40625 282.285156 -25.894531 C 282.792969 -29.621094 283.066406 -35.285156 283.109375 -42.894531 L 283.621094 -131.929688 C 283.832031 -168.160156 273.078125 -198.914062 251.363281 -224.183594 C 229.773438 -249.3125 202.640625 -261.96875 169.972656 -262.15625 Z M 169.972656 -262.15625 "/></g></g><g style="fill:#4caf50;fill-opacity:1;"><g transform="translate(306.034722, 334.025178)"><path style="stroke:none" d=""/></g></g><g style="fill:#4caf50;fill-opacity:1;"><g transform="translate(-0.534428, 332.263783)"><path style="stroke:none" d="M 170 -265.625 C 203.71875 -265.4375 231.710938 -252.378906 253.984375 -226.453125 C 276.253906 -200.523438 287.285156 -169.015625 287.078125 -131.921875 L 286.5625 -42.875 C 286.519531 -35.125 286.234375 -29.304688 285.703125 -25.421875 C 285.179688 -21.546875 283.726562 -17.257812 281.34375 -12.5625 C 276.5625 -3.46875 263.382812 1.015625 241.8125 0.890625 C 217.863281 0.753906 204.070312 -5.5625 200.4375 -18.0625 C 198.445312 -23.820312 197.488281 -32.4375 197.5625 -43.90625 L 198.0625 -132.9375 C 198.144531 -146.757812 194.242188 -157.570312 186.359375 -165.375 C 178.472656 -173.175781 167.867188 -177.113281 154.546875 -177.1875 C 141.234375 -177.269531 130.421875 -173.285156 122.109375 -165.234375 C 113.796875 -157.191406 109.601562 -146.59375 109.53125 -133.4375 L 109.015625 -43.890625 C 108.972656 -36.140625 108.6875 -30.328125 108.15625 -26.453125 C 107.632812 -22.578125 106.007812 -18.285156 103.28125 -13.578125 C 98.84375 -4.492188 85.832031 -0.0078125 64.25 -0.125 C 43 -0.25 30.039062 -4.882812 25.375 -14.03125 C 23.039062 -19.09375 21.628906 -23.566406 21.140625 -27.453125 C 20.660156 -31.335938 20.445312 -37.160156 20.5 -44.921875 L 21.515625 -224 C 21.554688 -231.414062 21.84375 -237.0625 22.375 -240.9375 C 22.90625 -244.8125 24.53125 -249.101562 27.25 -253.8125 C 32.03125 -262.207031 45.039062 -266.34375 66.28125 -266.21875 C 86.851562 -266.101562 99.484375 -262.15625 104.171875 -254.375 C 107.492188 -248.625 109.132812 -241.703125 109.09375 -233.609375 C 110.457031 -235.960938 113.507812 -239.316406 118.25 -243.671875 C 123 -248.023438 127.578125 -251.539062 131.984375 -254.21875 C 143.492188 -261.90625 156.164062 -265.707031 170 -265.625 Z M 170 -265.625 "/></g></g><g style="fill:#4caf50;fill-opacity:1;"><g transform="translate(306.034722, 334.025178)"><path style="stroke:none" d=""/></g></g><g style="fill:#fdf6ec;fill-opacity:1;"><g transform="translate(265.078377, 338.651654)"><path style="stroke:none" d="M 89.652344 -76.195312 C 95.339844 -70.507812 98.183594 -59.316406 98.183594 -42.613281 L 98.183594 -40.820312 C 98.183594 -33.507812 97.949219 -28.070312 97.484375 -24.496094 C 96.984375 -20.664062 95.289062 -16.179688 92.402344 -11.046875 L 89.714844 -12.558594 L 92.453125 -11.144531 C 87.394531 -1.359375 75.191406 3.53125 55.847656 3.53125 C 36.917969 3.53125 24.238281 0.398438 17.808594 -5.867188 C 11.355469 -12.152344 8.128906 -23.65625 8.128906 -40.371094 L 8.128906 -42.167969 C 8.128906 -49.171875 8.363281 -54.53125 8.828125 -58.25 C 9.324219 -62.214844 10.855469 -66.609375 13.425781 -71.429688 L 16.148438 -69.976562 L 13.390625 -71.355469 C 18.445312 -81.464844 30.652344 -86.519531 50.015625 -86.519531 C 68.90625 -86.519531 82.085938 -83.109375 89.550781 -76.292969 L 89.601562 -76.246094 Z M 85.292969 -71.835938 L 87.472656 -74.015625 L 85.394531 -71.738281 C 79.101562 -77.480469 67.3125 -80.351562 50.015625 -80.351562 C 33.195312 -80.351562 22.824219 -76.433594 18.90625 -68.597656 L 18.890625 -68.5625 L 18.871094 -68.527344 C 16.65625 -64.375 15.347656 -60.695312 14.949219 -57.484375 C 14.515625 -54.023438 14.296875 -48.917969 14.296875 -42.167969 L 14.296875 -40.371094 C 14.296875 -25.390625 16.902344 -15.359375 22.113281 -10.28125 C 27.347656 -5.183594 38.589844 -2.636719 55.847656 -2.636719 C 72.6875 -2.636719 83.066406 -6.414062 86.976562 -13.976562 L 87 -14.023438 L 87.027344 -14.070312 C 89.523438 -18.507812 90.96875 -22.25 91.367188 -25.292969 C 91.796875 -28.601562 92.015625 -33.777344 92.015625 -40.820312 L 92.015625 -42.613281 C 92.015625 -57.613281 89.773438 -67.351562 85.292969 -71.835938 Z M 85.292969 -71.835938 "/></g></g><g style="fill:#4caf50;fill-opacity:1;"><g transform="translate(265.078377, 338.651654)"><path style="stroke:none" d="M 87.46875 -74.015625 C 92.550781 -68.929688 95.09375 -58.460938 95.09375 -42.609375 L 95.09375 -40.828125 C 95.09375 -33.648438 94.867188 -28.335938 94.421875 -24.890625 C 93.972656 -21.453125 92.40625 -17.34375 89.71875 -12.5625 C 85.226562 -3.882812 73.9375 0.453125 55.84375 0.453125 C 37.75 0.453125 25.785156 -2.382812 19.953125 -8.0625 C 14.128906 -13.75 11.21875 -24.519531 11.21875 -40.375 L 11.21875 -42.171875 C 11.21875 -49.046875 11.441406 -54.273438 11.890625 -57.859375 C 12.335938 -61.453125 13.757812 -65.492188 16.15625 -69.984375 C 20.632812 -78.953125 31.921875 -83.4375 50.015625 -83.4375 C 68.109375 -83.4375 80.59375 -80.296875 87.46875 -74.015625 Z M 87.46875 -74.015625 "/></g></g></g></svg>